HIERARCHY
ROOT Hips
{
  OFFSET 0.187722 90.7508 -2.3685
  CHANNELS 6 Xposition Yposition Zposition Zrotation Xrotation Yrotation
  JOINT Spine
  {
    OFFSET 0 9.9235 -1.2273
    CHANNELS 6 Xposition Yposition Zposition Zrotation Xrotation Yrotation
    JOINT Spine1
    {
      OFFSET -0.0001 11.6454 -1.4223
      CHANNELS 6 Xposition Yposition Zposition Zrotation Xrotation Yrotation
      JOINT Spine2
      {
        OFFSET 0.0001 13.3602 -1.6265
        CHANNELS 6 Xposition Yposition Zposition Zrotation Xrotation Yrotation
        JOINT Neck
        {
          OFFSET 0 15.0325 0.7929
          CHANNELS 6 Xposition Yposition Zposition Zrotation Xrotation Yrotation
          JOINT Head
          {
            OFFSET 0 10.3218 3.1424
            CHANNELS 6 Xposition Yposition Zposition Zrotation Xrotation Yrotation
            JOINT HeadTop_End
            {
              OFFSET 0.0002 18.4747 6.6364
              CHANNELS 6 Xposition Yposition Zposition Zrotation Xrotation Yrotation
              End Site
              {
                OFFSET 0 0 0
              }
            }
            JOINT LeftEye
            {
              OFFSET 2.9479 7.6817 9.1207
              CHANNELS 6 Xposition Yposition Zposition Zrotation Xrotation Yrotation
              End Site
              {
                OFFSET 0 0 0
              }
            }
            JOINT RightEye
            {
              OFFSET -2.9445 7.6817 9.1205
              CHANNELS 6 Xposition Yposition Zposition Zrotation Xrotation Yrotation
              End Site
              {
                OFFSET 0 0 0
              }
            }
          }
        }
        JOINT LeftShoulder
        {
          OFFSET 6.1058 9.1104 0.7056
          CHANNELS 6 Xposition Yposition Zposition Zrotation Xrotation Yrotation
          JOINT LeftArm
          {
            OFFSET 12.655 -0.2659 -2.6009
            CHANNELS 6 Xposition Yposition Zposition Zrotation Xrotation Yrotation
            JOINT LeftForeArm
            {
              OFFSET 27.4047 0 0
              CHANNELS 6 Xposition Yposition Zposition Zrotation Xrotation Yrotation
              JOINT LeftHand
              {
                OFFSET 27.6145 0 0
                CHANNELS 6 Xposition Yposition Zposition Zrotation Xrotation Yrotation
                JOINT LeftHandMiddle1
                {
                  OFFSET 12.7755 0 0
                  CHANNELS 6 Xposition Yposition Zposition Zrotation Xrotation Yrotation
                  JOINT LeftHandMiddle2
                  {
                    OFFSET 3.614 0 0
                    CHANNELS 6 Xposition Yposition Zposition Zrotation Xrotation Yrotation
                    JOINT LeftHandMiddle3
                    {
                      OFFSET 3.4598 0 0
                      CHANNELS 6 Xposition Yposition Zposition Zrotation Xrotation Yrotation
                      End Site
                      {
                        OFFSET 3.6802 0 0
                      }
                    }
                  }
                }
                JOINT LeftHandThumb1
                {
                  OFFSET 3.7888 -2.167 3.0031
                  CHANNELS 6 Xposition Yposition Zposition Zrotation Xrotation Yrotation
                  JOINT LeftHandThumb2
                  {
                    OFFSET 3.6754 -2.122 2.122
                    CHANNELS 6 Xposition Yposition Zposition Zrotation Xrotation Yrotation
                    JOINT LeftHandThumb3
                    {
                      OFFSET 3.3944 -1.9597 1.9598
                      CHANNELS 6 Xposition Yposition Zposition Zrotation Xrotation Yrotation
                      End Site
                      {
                        OFFSET 2.6794 -1.5469 1.5469
                      }
                    }
                  }
                }
                JOINT LeftHandIndex1
                {
                  OFFSET 12.2666 -0.2317 2.8221
                  CHANNELS 6 Xposition Yposition Zposition Zrotation Xrotation Yrotation
                  JOINT LeftHandIndex2
                  {
                    OFFSET 3.892 0 0
                    CHANNELS 6 Xposition Yposition Zposition Zrotation Xrotation Yrotation
                    JOINT LeftHandIndex3
                    {
                      OFFSET 3.4152 0 0
                      CHANNELS 6 Xposition Yposition Zposition Zrotation Xrotation Yrotation
                      End Site
                      {
                        OFFSET 3.078 0 0
                      }
                    }
                  }
                }
                JOINT LeftHandRing1
                {
                  OFFSET 12.147 0.0099 -2.2166
                  CHANNELS 6 Xposition Yposition Zposition Zrotation Xrotation Yrotation
                  JOINT LeftHandRing2
                  {
                    OFFSET 3.6012 0 0
                    CHANNELS 6 Xposition Yposition Zposition Zrotation Xrotation Yrotation
                    JOINT LeftHandRing3
                    {
                      OFFSET 3.3073 0 0
                      CHANNELS 6 Xposition Yposition Zposition Zrotation Xrotation Yrotation
                      End Site
                      {
                        OFFSET 3.6601 0 0
                      }
                    }
                  }
                }
                JOINT LeftHandPinky1
                {
                  OFFSET 10.9082 -0.2264 -4.7258
                  CHANNELS 6 Xposition Yposition Zposition Zrotation Xrotation Yrotation
                  JOINT LeftHandPinky2
                  {
                    OFFSET 4.1367 0 0
                    CHANNELS 6 Xposition Yposition Zposition Zrotation Xrotation Yrotation
                    JOINT LeftHandPinky3
                    {
                      OFFSET 2.5948 0 0
                      CHANNELS 6 Xposition Yposition Zposition Zrotation Xrotation Yrotation
                      End Site
                      {
                        OFFSET 2.9239 0 0
                      }
                    }
                  }
                }
              }
            }
          }
        }
        JOINT RightShoulder
        {
          OFFSET -6.1057 9.1105 0.7056
          CHANNELS 6 Xposition Yposition Zposition Zrotation Xrotation Yrotation
          JOINT RightArm
          {
            OFFSET -12.655 -0.266 -2.6009
            CHANNELS 6 Xposition Yposition Zposition Zrotation Xrotation Yrotation
            JOINT RightForeArm
            {
              OFFSET -27.4047 0 0
              CHANNELS 6 Xposition Yposition Zposition Zrotation Xrotation Yrotation
              JOINT RightHand
              {
                OFFSET -27.6145 0 0
                CHANNELS 6 Xposition Yposition Zposition Zrotation Xrotation Yrotation
                JOINT RightHandMiddle1
                {
                  OFFSET -12.7755 0 0
                  CHANNELS 6 Xposition Yposition Zposition Zrotation Xrotation Yrotation
                  JOINT RightHandMiddle2
                  {
                    OFFSET -3.614 0 0
                    CHANNELS 6 Xposition Yposition Zposition Zrotation Xrotation Yrotation
                    JOINT RightHandMiddle3
                    {
                      OFFSET -3.4598 0 0
                      CHANNELS 6 Xposition Yposition Zposition Zrotation Xrotation Yrotation
                      End Site
                      {
                        OFFSET -3.6802 0 0
                      }
                    }
                  }
                }
                JOINT RightHandThumb1
                {
                  OFFSET -3.7888 -2.167 3.0031
                  CHANNELS 6 Xposition Yposition Zposition Zrotation Xrotation Yrotation
                  JOINT RightHandThumb2
                  {
                    OFFSET -3.6754 -2.122 2.122
                    CHANNELS 6 Xposition Yposition Zposition Zrotation Xrotation Yrotation
                    JOINT RightHandThumb3
                    {
                      OFFSET -3.3944 -1.9597 1.9598
                      CHANNELS 6 Xposition Yposition Zposition Zrotation Xrotation Yrotation
                      End Site
                      {
                        OFFSET -2.6794 -1.5469 1.5469
                      }
                    }
                  }
                }
                JOINT RightHandIndex1
                {
                  OFFSET -12.2666 -0.2317 2.8221
                  CHANNELS 6 Xposition Yposition Zposition Zrotation Xrotation Yrotation
                  JOINT RightHandIndex2
                  {
                    OFFSET -3.892 0 0
                    CHANNELS 6 Xposition Yposition Zposition Zrotation Xrotation Yrotation
                    JOINT RightHandIndex3
                    {
                      OFFSET -3.4152 0 0
                      CHANNELS 6 Xposition Yposition Zposition Zrotation Xrotation Yrotation
                      End Site
                      {
                        OFFSET -3.078 0 0
                      }
                    }
                  }
                }
                JOINT RightHandRing1
                {
                  OFFSET -12.147 0.0099 -2.2166
                  CHANNELS 6 Xposition Yposition Zposition Zrotation Xrotation Yrotation
                  JOINT RightHandRing2
                  {
                    OFFSET -3.6012 0 0
                    CHANNELS 6 Xposition Yposition Zposition Zrotation Xrotation Yrotation
                    JOINT RightHandRing3
                    {
                      OFFSET -3.3073 0 0
                      CHANNELS 6 Xposition Yposition Zposition Zrotation Xrotation Yrotation
                      End Site
                      {
                        OFFSET -3.6601 0 0
                      }
                    }
                  }
                }
                JOINT RightHandPinky1
                {
                  OFFSET -10.9082 -0.2264 -4.7258
                  CHANNELS 6 Xposition Yposition Zposition Zrotation Xrotation Yrotation
                  JOINT RightHandPinky2
                  {
                    OFFSET -4.1367 0 0
                    CHANNELS 6 Xposition Yposition Zposition Zrotation Xrotation Yrotation
                    JOINT RightHandPinky3
                    {
                      OFFSET -2.5948 0 0
                      CHANNELS 6 Xposition Yposition Zposition Zrotation Xrotation Yrotation
                      End Site
                      {
                        OFFSET -2.9239 0 0
                      }
                    }
                  }
                }
              }
            }
          }
        }
      }
    }
  }
  JOINT RightUpLeg
  {
    OFFSET -9.1245 -6.6564 -0.0554
    CHANNELS 6 Xposition Yposition Zposition Zrotation Xrotation Yrotation
    JOINT RightLeg
    {
      OFFSET -0.2447 -40.5954 -0.5145
      CHANNELS 6 Xposition Yposition Zposition Zrotation Xrotation Yrotation
      JOINT RightFoot
      {
        OFFSET 0.2447 -42.0479 -2.0602
        CHANNELS 6 Xposition Yposition Zposition Zrotation Xrotation Yrotation
        JOINT RightToeBase
        {
          OFFSET -0.3734 -10.4922 12.6407
          CHANNELS 6 Xposition Yposition Zposition Zrotation Xrotation Yrotation
          End Site
          {
            OFFSET 0 0 9.9925
          }
        }
      }
    }
  }
  JOINT LeftUpLeg
  {
    OFFSET 9.1245 -6.6564 -0.0554
    CHANNELS 6 Xposition Yposition Zposition Zrotation Xrotation Yrotation
    JOINT LeftLeg
    {
      OFFSET 0.2447 -40.5954 -0.517
      CHANNELS 6 Xposition Yposition Zposition Zrotation Xrotation Yrotation
      JOINT LeftFoot
      {
        OFFSET -0.2447 -42.048 -2.0576
        CHANNELS 6 Xposition Yposition Zposition Zrotation Xrotation Yrotation
        JOINT LeftToeBase
        {
          OFFSET 0.3734 -10.4922 12.6407
          CHANNELS 6 Xposition Yposition Zposition Zrotation Xrotation Yrotation
          End Site
          {
            OFFSET 0 0 9.9925
          }
        }
      }
    }
  }
}
MOTION
Frames:	4
Frame Time:	0.0166667
0.187722 90.7508 -2.3685 -3.39464 2.4292 -8.0287 0 9.9235 -1.2273 0.182635 8.29226 1.38779 -0.0001 11.6454 -1.4223 -0.0821001 16.5837 2.8894 0.0001 13.3602 -1.6265 -0.0821011 16.5837 2.8894 -2.22045e-016 15.0325 0.7929 3.54897 -5.85767 -2.57348 0 10.3218 3.1424 -5.1051 -25.7716 6.45826 0.0002 18.4747 6.6364 -0 0 7.95139e-016 2.9479 7.6817 9.1207 -0 0 7.95139e-016 -2.9445 7.6817 9.1205 -0 0 7.95139e-016 6.1058 9.1104 0.7056 -5.57419 0.877595 -3.05267 12.655 -0.2659 -2.6009 -37.836 35.8019 -38.2445 27.4047 3.55271e-015 -7.10543e-015 1.26325 -0.300062 -103.373 27.6145 -3.55271e-015 -1.42109e-014 -36.9348 25.2653 21.1725 12.7755 0 0 -27.7414 -2.99695 4.31611 3.614 0 0 -49.293 0.999205 -2.82785 3.4598 3.55271e-015 0 -1.59028e-015 -3.18055e-015 -6.36111e-015 3.7888 -2.167 3.0031 -15.5492 29.6617 -10.0789 3.6754 -2.122 2.122 -0.557993 0.343997 1.63459 3.3944 -1.9597 1.9598 -8.45277e-005 -0.000590081 -0.00109839 12.2666 -0.2317 2.8221 -14.7645 -12.7408 5.35819 3.892 0 -1.42109e-014 -31.4556 -0.784203 1.7961 3.4152 0 0 -6.36111e-015 -1.59028e-015 3.18055e-015 12.147 0.0099 -2.2166 -39.4828 -3.9111 8.4011 3.6012 0 0 -62.1403 1.49958 -2.52416 3.3073 7.10543e-015 0 -6.63566e-006 -4.51014e-006 5.33625e-006 10.9082 -0.2264 -4.7258 -51.7304 -2.02193 14.8758 4.1367 0 0 -64.4193 4.36533 -5.23469 2.5948 -7.10543e-015 0 3.18055e-015 -1.59028e-015 -3.18055e-015 -6.1057 9.1105 0.7056 5.49393 0.240993 -1.69173 -12.655 -0.266 -2.6009 27.4115 39.7977 61.7201 -27.4047 0 -3.55271e-015 -0.901322 0.33353 69.7081 -27.6145 0 1.42109e-014 15.4571 42.6379 -20.125 -12.7755 0 7.10543e-015 33.9233 -4.44371 1.59875 -3.614 0 -7.10543e-015 35.1106 0.490767 1.49941 -3.4598 1.77636e-015 -7.10543e-015 -3.18055e-015 1.59028e-015 -7.95139e-015 -3.7888 -2.167 3.0031 6.49132 2.07026 -14.3911 -3.6754 -2.122 2.122 -1.64633 3.55072 -9.27356 -3.3944 -1.9597 1.9598 8.50023e-005 -0.000593416 0.00110151 -12.2666 -0.2317 2.8221 20.5645 -10.4676 2.75467 -3.892 0 -7.10543e-015 21.8762 0.135325 -1.86705 -3.4152 -1.77636e-015 0 3.18055e-015 3.18055e-015 -2.38542e-015 -12.147 0.0099 -2.2166 40.5758 -2.04952 -1.20393 -3.6012 0 -7.10543e-015 40.3526 0.220069 2.75421 -3.3073 7.10543e-015 -7.10543e-015 -1.42571e-022 -6.42084e-007 -1.27222e-014 -10.9082 -0.2264 -4.7258 51.7547 2.98507 0.033203 -4.1367 0 0 48.5288 2.74719 8.19816 -2.5948 -7.10543e-015 0 -3.18055e-015 -3.04858e-007 3.18055e-015 -9.1245 -6.6564 -0.0554 -2.84898 -29.3437 -2.81954 -0.2447 -40.5954 -0.5145 6.14043 69.466 -4.67692 0.2447 -42.0479 -2.0602 6.81905 -23.581 -17.7893 -0.3734 -10.4922 12.6407 -0.00293764 -0.737292 0.00447333 9.1245 -6.6564 -0.0554 4.60577 -28.9989 7.78694 0.2447 -40.5954 -0.517 -4.20477 59.9098 2.3857 -0.2447 -42.048 -2.0576 1.93807 -24.1161 18.2144 0.3734 -10.4922 12.6407 0.559188 -5.29773 0.0140288 
0.178136 91.2803 -0.228042 -3.12987 2.8368 -8.29897 8.88178e-016 9.9235 -1.2273 0.127751 8.23503 1.26019 -0.0001 11.6454 -1.4223 -0.120195 16.4688 2.58195 0.0001 13.3602 -1.6265 -0.120196 16.4688 2.58195 1.11022e-016 15.0325 0.7929 3.14837 -4.85684 -2.85656 0 10.3218 3.1424 -4.78446 -25.0405 6.67127 0.0002 18.4747 6.6364 -3.97569e-016 1.59028e-015 -3.97569e-016 2.9479 7.6817 9.1207 -3.97569e-016 1.59028e-015 -3.97569e-016 -2.9445 7.6817 9.1205 -3.97569e-016 1.59028e-015 -3.97569e-016 6.1058 9.1104 0.7056 -5.45439 0.88525 -3.14479 12.655 -0.2659 -2.6009 -36.9599 35.6363 -39.6048 27.4047 -3.55271e-015 -7.10543e-015 1.26026 -0.291344 -103.03 27.6145 0 1.42109e-014 -35.2936 25.7436 20.9467 12.7755 -1.42109e-014 0 -27.7415 -2.99698 4.31609 3.614 -3.55271e-015 1.42109e-014 -49.293 0.999183 -2.82786 3.4598 -3.55271e-015 0 0 0 -9.54166e-015 3.7888 -2.167 3.0031 -15.5492 29.6617 -10.0789 3.6754 -2.122 2.122 -0.557997 0.343972 1.63459 3.3944 -1.9597 1.9598 -8.45277e-005 -0.000590081 -0.00109839 12.2666 -0.2317 2.8221 -14.7645 -12.7408 5.35817 3.892 0 0 -31.4556 -0.784179 1.79615 3.4152 1.77636e-015 2.84217e-014 -3.18055e-015 0 3.18055e-015 12.147 0.0099 -2.2166 -39.4828 -3.91113 8.40109 3.6012 0 0 -62.1403 1.49959 -2.52415 3.3073 7.10543e-015 0 -6.63566e-006 -4.51014e-006 5.33625e-006 10.9082 -0.2264 -4.7258 -51.7304 -2.02193 14.8758 4.1367 -8.88178e-016 0 -64.4193 4.36533 -5.23469 2.5948 0 7.10543e-015 1.59028e-015 -3.18055e-015 -0 -6.1057 9.1105 0.7056 5.79153 0.253555 -1.42432 -12.655 -0.266 -2.6009 25.7685 38.7095 61.9961 -27.4047 -3.55271e-015 3.55271e-015 -0.990104 0.351825 70.4524 -27.6145 -3.55271e-015 1.42109e-014 16.4287 40.7813 -20.3054 -12.7755 0 0 33.9233 -4.44368 1.59874 -3.614 0 -7.10543e-015 35.1106 0.490779 1.49943 -3.4598 1.77636e-015 7.10543e-015 -8.82781e-031 7.95139e-015 6.36111e-015 -3.7888 -2.167 3.0031 6.49131 2.07024 -14.3911 -3.6754 -2.122 2.122 -1.64631 3.55072 -9.27355 -3.3944 -1.9597 1.9598 8.50023e-005 -0.000593416 0.00110151 -12.2666 -0.2317 2.8221 20.5645 -10.4676 2.7547 -3.892 0 0 21.8762 0.135366 -1.86709 -3.4152 -1.77636e-015 -7.10543e-015 -3.18055e-015 -3.18055e-015 1.59028e-015 -12.147 0.0099 -2.2166 40.5758 -2.04952 -1.20394 -3.6012 -3.55271e-015 0 40.3526 0.220077 2.75423 -3.3073 7.10543e-015 0 6.36111e-015 -6.42084e-007 3.18055e-015 -10.9082 -0.2264 -4.7258 51.7547 2.98508 0.0332276 -4.1367 0 7.10543e-015 48.5288 2.74717 8.19818 -2.5948 -7.10543e-015 0 1.59028e-015 -3.04858e-007 3.18055e-015 -9.1245 -6.6564 -0.0554 -2.24171 -30.7474 -2.60782 -0.2447 -40.5954 -0.5145 5.2834 66.6193 -3.8325 0.2447 -42.0479 -2.0602 6.16309 -24.6543 -17.1522 -0.3734 -10.4922 12.6407 0.414723 -2.07677 -1.11485 9.1245 -6.6564 -0.0554 4.29234 -27.4143 7.92226 0.2447 -40.5954 -0.517 -4.01957 58.7842 2.24025 -0.2447 -42.048 -2.0576 1.01714 -23.742 17.5187 0.3734 -10.4922 12.6407 0.935148 -6.34942 -0.0764054 
0.121837 91.853 1.93972 -2.90055 3.19551 -8.56483 -8.88178e-016 9.9235 -1.2273 0.0717659 8.20063 1.14582 -0.0001 11.6454 -1.4223 -0.163468 16.3996 2.3053 0.0001 13.3602 -1.6265 -0.163467 16.3997 2.3053 0 15.0325 0.7929 2.67717 -4.48973 -3.21936 -2.22045e-016 10.3218 3.1424 -4.31791 -23.9571 6.71736 0.0002 18.4747 6.6364 2.48481e-016 3.18055e-015 5.96354e-016 2.9479 7.6817 9.1207 2.48481e-016 3.18055e-015 5.96354e-016 -2.9445 7.6817 9.1205 2.48481e-016 3.18055e-015 5.96354e-016 6.1058 9.1104 0.7056 -5.4347 0.897058 -3.24898 12.655 -0.2659 -2.6009 -35.8168 35.3717 -41.0486 27.4047 0 0 1.26078 -0.283468 -102.683 27.6145 0 -1.42109e-014 -33.5187 26.0912 20.5407 12.7755 0 -1.42109e-014 -27.7414 -2.99698 4.3161 3.614 0 0 -49.293 0.999188 -2.82784 3.4598 3.55271e-015 0 3.18055e-015 -4.77083e-015 3.18055e-015 3.7888 -2.167 3.0031 -15.5492 29.6617 -10.0789 3.6754 -2.122 2.122 -0.558021 0.344004 1.63459 3.3944 -1.9597 1.9598 -8.45277e-005 -0.000590081 -0.00109839 12.2666 -0.2317 2.8221 -14.7645 -12.7408 5.35817 3.892 0 -2.84217e-014 -31.4556 -0.784213 1.79613 3.4152 0 0 -9.54166e-015 -1.59028e-015 7.95139e-015 12.147 0.0099 -2.2166 -39.4828 -3.9111 8.40109 3.6012 3.55271e-015 0 -62.1403 1.49958 -2.52413 3.3073 0 0 -6.63566e-006 -4.51014e-006 5.33625e-006 10.9082 -0.2264 -4.7258 -51.7304 -2.02193 14.8758 4.1367 0 -7.10543e-015 -64.4193 4.36532 -5.23466 2.5948 0 0 3.18055e-015 1.59028e-015 -0 -6.1057 9.1105 0.7056 6.02342 0.269092 -1.20941 -12.655 -0.266 -2.6009 24.1395 37.6168 62.4 -27.4047 0 -3.55271e-015 -1.13925 0.391723 71.0381 -27.6145 0 1.42109e-014 16.5401 39.162 -20.3349 -12.7755 0 -1.42109e-014 33.9233 -4.44371 1.59876 -3.614 0 7.10543e-015 35.1106 0.49076 1.49941 -3.4598 -3.55271e-015 -7.10543e-015 -3.18055e-015 0 -1.59028e-015 -3.7888 -2.167 3.0031 6.4913 2.07024 -14.391 -3.6754 -2.122 2.122 -1.64633 3.55074 -9.27353 -3.3944 -1.9597 1.9598 8.50023e-005 -0.000593416 0.00110151 -12.2666 -0.2317 2.8221 20.5645 -10.4676 2.7547 -3.892 0 0 21.8762 0.135343 -1.86708 -3.4152 0 -7.10543e-015 3.18055e-015 -4.77083e-015 7.15625e-015 -12.147 0.0099 -2.2166 40.5758 -2.04951 -1.2039 -3.6012 3.55271e-015 7.10543e-015 40.3526 0.220074 2.75421 -3.3073 0 7.10543e-015 -6.36111e-015 -6.42084e-007 -3.18055e-015 -10.9082 -0.2264 -4.7258 51.7547 2.98508 0.0332336 -4.1367 1.77636e-015 -7.10543e-015 48.5287 2.7472 8.19819 -2.5948 7.10543e-015 0 -3.18055e-015 -3.04858e-007 -3.18055e-015 -9.1245 -6.6564 -0.0554 -1.52027 -31.8946 -2.38647 -0.2447 -40.5954 -0.5145 4.52843 63.4 -3.09813 0.2447 -42.0479 -2.0602 4.9231 -25.4579 -16.7162 -0.3734 -10.4922 12.6407 0.318901 -3.79046 -1.4887 9.1245 -6.6564 -0.0554 4.00046 -25.685 7.98778 0.2447 -40.5954 -0.517 -3.81574 57.4528 2.0798 -0.2447 -42.048 -2.0576 0.180832 -23.0716 16.7357 0.3734 -10.4922 12.6407 1.19092 -7.52911 -0.219402 
-0.073355 92.5605 4.1897 -2.76548 3.40145 -8.84497 -8.88178e-016 9.9235 -1.2273 0.00890447 8.25191 1.07408 -0.0001 11.6454 -1.4223 -0.231665 16.5017 2.1213 0.0001 13.3602 -1.6265 -0.231667 16.5017 2.1213 4.44089e-016 15.0325 0.7929 2.18014 -4.4646 -3.62472 0 10.3218 3.1424 -3.75221 -22.7017 6.65854 0.0002 18.4747 6.6364 -2.85753e-016 0 7.45443e-017 2.9479 7.6817 9.1207 -2.85753e-016 0 7.45443e-017 -2.9445 7.6817 9.1205 -2.85753e-016 0 7.45443e-017 6.1058 9.1104 0.7056 -5.67918 0.91751 -3.33471 12.655 -0.2659 -2.6009 -33.884 34.8284 -42.8342 27.4047 0 7.10543e-015 1.26951 -0.277354 -102.338 27.6145 3.55271e-015 0 -31.3436 26.0097 19.6623 12.7755 0 0 -27.7414 -2.99695 4.3161 3.614 0 -1.42109e-014 -49.293 0.999169 -2.82788 3.4598 3.55271e-015 -1.42109e-014 -4.77083e-015 -3.97569e-015 -3.18055e-015 3.7888 -2.167 3.0031 -15.5492 29.6617 -10.0789 3.6754 -2.122 2.122 -0.558002 0.34397 1.63459 3.3944 -1.9597 1.9598 -8.45277e-005 -0.000590081 -0.00109839 12.2666 -0.2317 2.8221 -14.7645 -12.7408 5.35819 3.892 0 0 -31.4556 -0.784229 1.79611 3.4152 1.77636e-015 0 0 0 -1.59028e-015 12.147 0.0099 -2.2166 -39.4828 -3.91113 8.40108 3.6012 -3.55271e-015 7.10543e-015 -62.1403 1.49958 -2.52413 3.3073 0 0 -6.63566e-006 -4.51014e-006 5.33625e-006 10.9082 -0.2264 -4.7258 -51.7304 -2.02192 14.8758 4.1367 0 0 -64.4193 4.36535 -5.23466 2.5948 0 0 4.77083e-015 6.36111e-015 -0 -6.1057 9.1105 0.7056 6.03244 0.28308 -1.19178 -12.655 -0.266 -2.6009 22.5847 36.5577 63.1899 -27.4047 0 0 -1.19152 0.406753 71.164 -27.6145 0 1.42109e-014 15.7817 37.9731 -20.0481 -12.7755 0 0 33.9233 -4.44369 1.59875 -3.614 0 7.10543e-015 35.1106 0.490781 1.49941 -3.4598 0 0 -3.18055e-015 1.59028e-015 -0 -3.7888 -2.167 3.0031 6.49131 2.07026 -14.391 -3.6754 -2.122 2.122 -1.64632 3.55071 -9.27356 -3.3944 -1.9597 1.9598 8.50023e-005 -0.000593416 0.00110151 -12.2666 -0.2317 2.8221 20.5645 -10.4676 2.7547 -3.892 0 -7.10543e-015 21.8762 0.135318 -1.86708 -3.4152 0 0 3.18055e-015 1.59028e-015 -6.36111e-015 -12.147 0.0099 -2.2166 40.5758 -2.0495 -1.20391 -3.6012 0 0 40.3526 0.220053 2.75422 -3.3073 0 7.10543e-015 6.36111e-015 -6.42084e-007 -3.18055e-015 -10.9082 -0.2264 -4.7258 51.7547 2.98508 0.0332183 -4.1367 0 7.10543e-015 48.5287 2.74719 8.19819 -2.5948 0 -7.10543e-015 -1.6923e-023 -3.04858e-007 -3.18055e-015 -9.1245 -6.6564 -0.0554 -0.458177 -32.3099 -2.06832 -0.2447 -40.5954 -0.5145 3.75778 59.1193 -2.36919 0.2447 -42.0479 -2.0602 1.47133 -25.4492 -16.996 -0.3734 -10.4922 12.6407 -1.17782 -7.0747 0.524464 9.1245 -6.6564 -0.0554 3.78031 -23.467 7.86532 0.2447 -40.5954 -0.517 -3.53826 55.4639 1.85644 -0.2447 -42.048 -2.0576 -0.432557 -21.5724 15.768 0.3734 -10.4922 12.6407 1.10264 -9.71143 -0.595874 
